<?xml version="1.0" encoding="UTF-8"?>
<svg id="Layer_1" xmlns="http://www.w3.org/2000/svg" version="1.1" viewBox="0 0 1366 768">
  <!-- Generator: Adobe Illustrator 29.7.1, SVG Export Plug-In . SVG Version: 2.1.1 Build 8)  -->
  <defs>
    <style>
      .st0 {
        fill: #fff;
      }
    </style>
  </defs>
  <path class="st0" d="M356.44,227.88c7.11-14.72,11.07-31.1,11.07-48.35,0-64.2-54.85-116.25-122.5-116.25s-122.5,52.05-122.5,116.25c0,17.81,4.23,34.69,11.78,49.78-38.01,10.69-65.78,44.46-65.78,84.47,0,48.6,40.97,88,91.5,88,4.93,0,9.77-.39,14.49-1.11l-48.91-50.36c-2.5-2.58-2.44-6.69.13-9.19,2.57-2.5,6.69-2.44,9.19.13l54.31,55.93c17.98-5.83,33.46-16.87,44.49-31.27l.42-136.12c.02-7.44,6.06-13.46,13.5-13.46h.04c7.46.02,13.48,6.09,13.46,13.54l-.41,133.23c3.41,4.83,7.3,9.32,11.61,13.4l80.75-80.76c2.54-2.54,6.65-2.54,9.19,0s2.54,6.65,0,9.19l-79.83,79.83c15.15,10.69,33.82,17.01,54.05,17.01,50.53,0,91.5-39.4,91.5-88,0-42.02-30.62-77.15-71.57-85.9Z"/>
  <path class="st0" d="M260.66,388.19l.08-25.09c-5.54-7.86-9.8-16.62-12.47-26.02-3,10.53-7.98,20.27-14.53,28.82l-.24,76.84-44.25-45.57c-4.75,1.54-9.67,2.71-14.73,3.49l52.09,53.64c1.27,1.31,2.97,1.97,4.66,1.97.74,0,1.48-.13,2.19-.39l-.23,75.89c-.02,7.46,6,13.52,13.46,13.54h.04c7.44,0,13.48-6.02,13.5-13.46l.39-125.24,21.86-21.86c-3.58-2.52-6.96-5.28-10.12-8.26l-11.68,11.68Z"/>
  <polygon class="st0" points="413.86 129.44 520.5 129.44 520.5 416.49 563.34 416.49 563.34 129.44 670.42 129.44 670.42 91.03 413.86 91.03 413.86 129.44"/>
  <path class="st0" d="M776.63,216.68c9.71,0,19.43,2.89,29.15,8.66l13.69-37.07c-13.84-8.58-27.46-12.88-40.85-12.88-9.27,0-17.77,2.66-25.5,7.99-7.73,5.33-16.16,16.36-25.28,33.08v-35.74h-35.77v235.77h39.74v-123.43c0-16.87,2.21-32.41,6.62-46.62,2.94-9.32,7.87-16.61,14.79-21.87,6.92-5.25,14.72-7.88,23.4-7.88Z"/>
  <path class="st0" d="M1044.68,345.67l-41.07-5.11c-6.04,16.87-14.21,29.16-24.51,36.85-10.3,7.7-22.74,11.54-37.31,11.54-19.58,0-35.92-6.88-49.02-20.65-13.1-13.76-20.39-33.6-21.86-59.5h174.87c.15-4.73.22-8.29.22-10.66,0-38.92-9.94-69.12-29.81-90.58-19.87-21.46-45.48-32.19-76.84-32.19s-58.73,10.95-79.05,32.86c-20.31,21.91-30.47,52.69-30.47,92.35s10.05,68.12,30.14,89.36c20.09,21.24,47.29,31.86,81.58,31.86,27.23,0,49.6-6.66,67.12-19.98,17.52-13.32,29.51-32.04,35.99-56.17ZM893.76,226.67c12.44-12.28,27.78-18.43,46.04-18.43,20.17,0,36.58,7.7,49.24,23.09,8.24,9.92,13.25,24.79,15.01,44.62h-130.93c1.33-20.57,8.2-37,20.64-49.29Z"/>
  <path class="st0" d="M1297.49,298.16c0-38.92-9.94-69.12-29.81-90.58-19.87-21.46-45.48-32.19-76.84-32.19s-58.73,10.95-79.05,32.86c-20.31,21.91-30.47,52.69-30.47,92.35s10.05,68.12,30.14,89.36c20.09,21.24,47.29,31.86,81.58,31.86,27.23,0,49.6-6.66,67.12-19.98,17.52-13.32,29.51-32.04,35.99-56.17l-41.07-5.11c-6.04,16.87-14.21,29.16-24.51,36.85-10.3,7.7-22.74,11.54-37.31,11.54-19.58,0-35.92-6.88-49.02-20.65-13.1-13.76-20.39-33.6-21.86-59.5h174.87c.15-4.73.22-8.29.22-10.66ZM1124.61,275.96c1.33-20.57,8.2-37,20.64-49.29,12.44-12.28,27.78-18.43,46.04-18.43,20.17,0,36.58,7.7,49.24,23.09,8.24,9.92,13.25,24.79,15.01,44.62h-130.93Z"/>
  <path class="st0" d="M575.77,427.47c-3.34-2.31-7.49-3.88-12.44-4.71-3.53-.64-8.64-.96-15.32-.96h-38v100.73h13.33v-40.95h25.84c14.25,0,24.09-2.97,29.55-8.9,5.45-5.93,8.18-13.18,8.18-21.75,0-4.99-1.02-9.57-3.06-13.74-2.04-4.17-4.73-7.41-8.07-9.72ZM567.73,464.89c-3.62,3.21-9.73,4.81-18.35,4.81h-26.04v-36.01h25.77c6.05,0,10.19.3,12.44.89,3.48.96,6.29,2.94,8.42,5.94,2.13,3,3.2,6.61,3.2,10.82,0,5.82-1.81,10.33-5.43,13.54Z"/>
  <path class="st0" d="M650.6,451.11c-3.99-2.13-8.68-3.2-14.09-3.2-8.8,0-16.08,3.34-21.85,10.03v-36.14h-12.37v100.73h12.37v-39.92c0-5.73.69-10.21,2.06-13.47,1.37-3.25,3.68-5.83,6.91-7.73,3.23-1.9,6.68-2.85,10.34-2.85,4.9,0,8.69,1.41,11.37,4.23s4.02,7.32,4.02,13.5v46.24h12.37v-46.24c0-7.15-.86-12.6-2.58-16.35-1.72-3.76-4.57-6.7-8.55-8.83Z"/>
  <path class="st0" d="M710.17,447.92c-9.02,0-16.67,2.7-22.95,8.11-7.51,6.5-11.27,16.51-11.27,30.03,0,12.32,3.15,21.76,9.45,28.31,6.3,6.55,14.56,9.83,24.77,9.83,6.37,0,12.24-1.49,17.62-4.47s9.48-7.16,12.3-12.54c2.82-5.38,4.23-12.77,4.23-22.16,0-11.59-3.18-20.67-9.55-27.25-6.37-6.57-14.57-9.86-24.6-9.86ZM725.5,507.01c-4.08,4.67-9.18,7.01-15.32,7.01s-11.32-2.32-15.39-6.97c-4.08-4.65-6.12-11.65-6.12-20.99s2.04-16.33,6.12-20.96c4.08-4.63,9.21-6.94,15.39-6.94s11.19,2.33,15.29,6.97c4.1,4.65,6.15,11.49,6.15,20.51,0,9.58-2.04,16.7-6.12,21.37Z"/>
  <path class="st0" d="M780.4,511.96c-1.83,0-3.24-.3-4.23-.89-.99-.59-1.69-1.4-2.13-2.4-.44-1.01-.65-3.27-.65-6.8v-42.67h12.44v-9.62h-12.44v-25.49l-12.3,7.42v18.07h-9.07v9.62h9.07v41.98c0,7.42.5,12.29,1.51,14.6,1.01,2.31,2.75,4.18,5.22,5.6,2.47,1.42,5.96,2.13,10.45,2.13,2.75,0,5.86-.37,9.34-1.1l-1.79-10.92c-2.24.32-4.05.48-5.43.48Z"/>
  <path class="st0" d="M827.54,447.92c-9.02,0-16.67,2.7-22.95,8.11-7.51,6.5-11.27,16.51-11.27,30.03,0,12.32,3.15,21.76,9.45,28.31,6.3,6.55,14.55,9.83,24.77,9.83,6.37,0,12.24-1.49,17.62-4.47s9.48-7.16,12.3-12.54c2.82-5.38,4.23-12.77,4.23-22.16,0-11.59-3.18-20.67-9.55-27.25-6.37-6.57-14.57-9.86-24.6-9.86ZM842.86,507.01c-4.08,4.67-9.18,7.01-15.32,7.01s-11.32-2.32-15.39-6.97c-4.08-4.65-6.12-11.65-6.12-20.99s2.04-16.33,6.12-20.96c4.08-4.63,9.21-6.94,15.39-6.94s11.19,2.33,15.29,6.97c4.1,4.65,6.15,11.49,6.15,20.51,0,9.58-2.04,16.7-6.12,21.37Z"/>
  <path class="st0" d="M924.35,458.36c-5.59-6.96-12.69-10.44-21.3-10.44-6.46,0-12.08,1.6-16.87,4.81-4.79,3.21-8.44,7.75-10.96,13.64-2.52,5.89-3.78,12.31-3.78,19.27,0,10.12,2.75,18.81,8.25,26.04,5.5,7.24,13.26,10.86,23.29,10.86,8.06,0,14.8-3.18,20.2-9.55.04,8.06-.25,13.35-.89,15.87-1.1,4.12-3.21,7.33-6.32,9.62-3.12,2.29-7.54,3.44-13.26,3.44-5.31,0-9.51-1.15-12.57-3.44-2.29-1.7-3.69-4.4-4.19-8.11l-12.02-1.79c-.18,7.88,2.41,13.78,7.76,17.69,5.36,3.92,12.39,5.88,21.09,5.88,7.33,0,13.5-1.37,18.52-4.12,5.02-2.75,8.68-6.49,10.99-11.24,2.31-4.74,3.47-12.79,3.47-24.15v-63.08h-11.41v8.79ZM918.45,505.74c-3.85,4.38-8.61,6.56-14.29,6.56s-10.49-2.2-14.29-6.6c-3.8-4.4-5.7-11.38-5.7-20.96,0-8.8,1.92-15.43,5.77-19.89,3.85-4.47,8.52-6.7,14.02-6.7s10.36,2.27,14.33,6.8c3.96,4.54,5.94,11.27,5.94,20.2s-1.92,16.21-5.77,20.58Z"/>
  <path class="st0" d="M973.31,450.39c-2.4,1.65-5.03,5.06-7.87,10.24v-11.06h-11.13v72.97h12.37v-38.21c0-5.22.69-10.03,2.06-14.43.92-2.89,2.45-5.14,4.6-6.77,2.15-1.63,4.58-2.44,7.28-2.44,3.02,0,6.05.89,9.07,2.68l4.26-11.48c-4.31-2.66-8.54-3.99-12.71-3.99-2.89,0-5.53.83-7.94,2.47Z"/>
  <path class="st0" d="M1060.41,491.96v-16.49c0-5.5-.21-9.3-.62-11.41-.73-3.39-2.02-6.19-3.85-8.42-1.83-2.22-4.7-4.06-8.59-5.53-3.89-1.47-8.96-2.2-15.19-2.2s-11.8.86-16.56,2.58c-4.76,1.72-8.41,4.17-10.92,7.35-2.52,3.18-4.33,7.36-5.43,12.54l12.09,1.65c1.33-5.18,3.38-8.78,6.15-10.82,2.77-2.04,7.07-3.06,12.88-3.06,6.23,0,10.93,1.4,14.09,4.19,2.34,2.06,3.5,5.61,3.5,10.65,0,.46-.02,1.54-.07,3.23-4.72,1.65-12.07,3.07-22.06,4.26-4.9.6-8.57,1.21-10.99,1.86-3.3.92-6.26,2.27-8.9,4.05-2.63,1.79-4.76,4.16-6.39,7.11-1.63,2.95-2.44,6.22-2.44,9.79,0,6.09,2.15,11.1,6.46,15.01,4.31,3.92,10.47,5.88,18.48,5.88,4.86,0,9.4-.8,13.64-2.41s8.65-4.35,13.23-8.25c.37,3.44,1.19,6.44,2.47,9h12.92c-1.56-2.79-2.6-5.71-3.13-8.76-.53-3.05-.79-10.32-.79-21.82ZM1047.9,490.45c0,5.45-.67,9.57-1.99,12.37-1.74,3.62-4.47,6.47-8.18,8.55-3.71,2.08-7.95,3.13-12.71,3.13s-8.46-1.1-10.96-3.3c-2.5-2.2-3.75-4.95-3.75-8.25,0-2.15.57-4.11,1.72-5.88,1.14-1.76,2.77-3.1,4.88-4.02,2.11-.92,5.7-1.74,10.79-2.47,8.98-1.28,15.71-2.84,20.2-4.67v4.54Z"/>
  <path class="st0" d="M1128.5,452.73c-4.76-3.21-10.26-4.81-16.49-4.81-4.76,0-8.82.93-12.16,2.78-3.34,1.86-6.35,4.64-9,8.35v-9.48h-11.27v100.94h12.37v-35.53c2.11,2.66,4.8,4.86,8.07,6.6,3.27,1.74,6.97,2.61,11.1,2.61,5.63,0,11-1.59,16.11-4.78,5.11-3.18,9-7.76,11.68-13.74s4.02-12.7,4.02-20.17c0-6.96-1.21-13.37-3.64-19.21-2.43-5.84-6.02-10.36-10.79-13.57ZM1124.42,507.04c-3.92,4.65-8.62,6.97-14.12,6.97s-10.01-2.24-13.81-6.73c-3.8-4.49-5.7-11.43-5.7-20.82s2.03-16.55,6.08-21.47c4.05-4.92,8.71-7.39,13.98-7.39s9.88,2.31,13.71,6.94c3.82,4.63,5.74,11.59,5.74,20.89,0,9.76-1.96,16.96-5.88,21.61Z"/>
  <path class="st0" d="M1206.15,451.11c-3.99-2.13-8.68-3.2-14.09-3.2-8.8,0-16.08,3.34-21.85,10.03v-36.14h-12.37v100.73h12.37v-39.92c0-5.73.69-10.21,2.06-13.47,1.37-3.25,3.68-5.83,6.91-7.73,3.23-1.9,6.68-2.85,10.34-2.85,4.9,0,8.69,1.41,11.37,4.23s4.02,7.32,4.02,13.5v46.24h12.37v-46.24c0-7.15-.86-12.6-2.58-16.35-1.72-3.76-4.57-6.7-8.55-8.83Z"/>
  <path class="st0" d="M1267.99,492.1c-1.97,5.41-3.67,10.95-5.08,16.63-1.56-5.91-3.32-11.54-5.29-16.9l-15.19-42.26h-13.33l27.69,73.11c-.5,1.33-.87,2.34-1.1,3.02-1.74,4.9-3,7.97-3.78,9.21-1.05,1.65-2.4,2.93-4.05,3.85-1.65.92-3.85,1.37-6.6,1.37-2.02,0-4.38-.37-7.08-1.1l1.37,11.61c2.93,1.01,5.59,1.51,7.97,1.51,3.94,0,7.33-.95,10.17-2.85,2.84-1.9,5.36-4.89,7.56-8.97,1.65-3.02,3.96-8.54,6.94-16.56l27.76-74.21h-12.37l-15.6,42.53Z"/>
</svg>